<svg aria-hidden="true" style="position: absolute; width: 0; height: 0; overflow: hidden;" version="1.1" xmlns="http://www.w3.org/2000/svg" xmlns:xlink="http://www.w3.org/1999/xlink">
<defs>
<symbol id="icon-btn-menu_header" viewBox="0 0 45 32">
<path d="M0 0h45.333v5.333h-45.333v-5.333z"></path>
<path d="M0 13.333h34.667v5.333h-34.667v-5.333z"></path>
<path d="M0 26.667h24v5.333h-24v-5.333z"></path>
</symbol>
<symbol id="icon-select" viewBox="0 0 46 32">
<path d="M22.857 17.778l17.779-17.779 5.079 5.079-22.857 22.857-22.857-22.857 5.079-5.079 17.779 17.779z"></path>
</symbol>
<symbol id="icon-search" viewBox="0 0 32 32">
<path d="M25.253 23.026l6.747 6.746-2.228 2.228-6.746-6.747c-2.394 1.932-5.474 3.101-8.827 3.101-0.007 0-0.015 0-0.022-0h0.001c-7.826 0-14.177-6.351-14.177-14.177s6.351-14.177 14.177-14.177c7.826 0 14.177 6.351 14.177 14.177 0 0.006 0 0.014 0 0.021 0 3.353-1.169 6.433-3.122 8.854l0.021-0.027zM22.093 21.857c1.924-1.977 3.11-4.681 3.11-7.662 0-0.006 0-0.013-0-0.019v0.001c0-0.001 0-0.002 0-0.004 0-6.088-4.935-11.023-11.023-11.023-0.001 0-0.002 0-0.003 0h0c-0.001 0-0.002 0-0.004 0-6.088 0-11.023 4.935-11.023 11.023 0 0.001 0 0.003 0 0.004v-0c0 0.001 0 0.002 0 0.004 0 6.088 4.935 11.023 11.023 11.023 0.001 0 0.003 0 0.004 0h-0c0.005 0 0.012 0 0.018 0 2.981 0 5.684-1.186 7.664-3.113l-0.003 0.002 0.236-0.237z"></path>
</symbol>
<symbol id="icon-profile" viewBox="0 0 32 32">
<path d="M3.2 32c0-6.733 5.458-12.191 12.191-12.191s12.191 5.458 12.191 12.191v0h-3.048c0-5.050-4.094-9.144-9.144-9.144s-9.144 4.094-9.144 9.144v0h-3.046zM15.391 18.286c-0.002 0-0.003 0-0.005 0-5.047 0-9.139-4.092-9.139-9.139 0-0.001 0-0.003 0-0.004v0c0-0.001 0-0.002 0-0.004 0-5.047 4.092-9.139 9.139-9.139 0.002 0 0.004 0 0.005 0h-0c0.001 0 0.002 0 0.004 0 5.047 0 9.139 4.092 9.139 9.139 0 0.001 0 0.003 0 0.004v-0c0 0.001 0 0.002 0 0.004 0 5.047-4.092 9.139-9.139 9.139-0.001 0-0.003 0-0.004 0h0zM15.391 15.238c0.001 0 0.002 0 0.003 0 3.365 0 6.093-2.728 6.093-6.093 0-0.001 0-0.002 0-0.003v0c0-0.001 0-0.002 0-0.003 0-3.365-2.728-6.093-6.093-6.093-0.001 0-0.002 0-0.003 0h0c-0.001 0-0.002 0-0.003 0-3.365 0-6.093 2.728-6.093 6.093 0 0.001 0 0.002 0 0.003v-0c0 0.001 0 0.002 0 0.003 0 3.365 2.728 6.093 6.093 6.093 0.001 0 0.002 0 0.003 0h-0z"></path>
</symbol>
<symbol id="icon-favorites" viewBox="0 0 32 32">
<path d="M16.001 4.046c3.758-3.374 9.567-3.263 13.187 0.365 1.738 1.737 2.812 4.137 2.812 6.789 0 2.458-0.924 4.7-2.443 6.398l0.008-0.009-13.568 13.587-13.563-13.588c-1.512-1.689-2.437-3.932-2.437-6.391 0-5.302 4.298-9.6 9.6-9.6 2.465 0 4.714 0.929 6.414 2.457l-0.009-0.008zM26.922 6.671c-1.157-1.156-2.755-1.871-4.52-1.871-1.641 0-3.137 0.618-4.269 1.633l0.006-0.005-2.136 1.916-2.138-1.916c-1.127-1.010-2.623-1.628-4.264-1.628-1.767 0-3.367 0.717-4.525 1.875l-0 0c-1.158 1.158-1.875 2.758-1.875 4.525 0 1.609 0.594 3.079 1.574 4.203l-0.007-0.008 11.232 11.251 11.232-11.249c0.975-1.117 1.569-2.588 1.569-4.198 0-1.769-0.718-3.371-1.878-4.529l-0-0z"></path>
</symbol>
<symbol id="icon-basket" viewBox="0 0 32 32">
<path d="M4.886 7.014l-4.886-4.882 2.131-2.132 4.884 4.886h22.959c0 0 0 0 0 0 0.832 0 1.507 0.675 1.507 1.507 0 0.154-0.023 0.302-0.066 0.442l0.003-0.011-3.616 12.051c-0.192 0.627-0.765 1.075-1.442 1.075h-18.463v3.012h16.571v3.013h-18.077c-0.832-0.001-1.505-0.675-1.505-1.507v0-17.454zM7.898 7.898v9.038h17.341l2.712-9.037h-20.054zM7.145 32c-0.016 0-0.035 0.001-0.054 0.001-1.248 0-2.26-1.012-2.26-2.26s1.012-2.26 2.26-2.26c0.019 0 0.038 0 0.057 0.001l-0.003-0c1.225 0.030 2.207 1.030 2.207 2.26s-0.982 2.23-2.204 2.26l-0.003 0zM25.221 32c-1.248 0-2.259-1.011-2.259-2.259s1.011-2.259 2.259-2.259v0c1.248 0 2.259 1.011 2.259 2.259s-1.011 2.259-2.259 2.259v0z"></path>
</symbol>
<symbol id="icon-btn-hero-v" viewBox="0 0 32 32">
<path d="M17.58 16l-6.914-6.916 1.973-1.973 8.889 8.889-8.889 8.889-1.973-1.973 6.914-6.916z"></path>
</symbol>
<symbol id="icon-instagram-footer" viewBox="0 0 32 32">
<path d="M16 12c-2.209 0-4 1.791-4 4s1.791 4 4 4v0c2.209 0 4-1.791 4-4s-1.791-4-4-4v0zM16 9.334c3.682 0 6.666 2.985 6.666 6.666s-2.985 6.666-6.666 6.666v0c-3.682 0-6.666-2.985-6.666-6.666s2.985-6.666 6.666-6.666v0zM24.667 9c0 0.921-0.747 1.667-1.667 1.667s-1.667-0.746-1.667-1.667v0c0-0.921 0.747-1.667 1.667-1.667s1.667 0.746 1.667 1.667v0zM16 5.334c-3.299 0-3.838 0.008-5.373 0.077-1.044 0.049-1.747 0.189-2.397 0.441-0.565 0.211-1.046 0.531-1.439 0.937l-0.001 0.001c-0.418 0.404-0.738 0.896-0.938 1.44-0.253 0.653-0.394 1.352-0.443 2.397-0.067 1.472-0.076 1.987-0.076 5.373 0 3.299 0.008 3.837 0.077 5.373 0.049 1.044 0.189 1.747 0.441 2.395 0.226 0.581 0.492 0.997 0.935 1.44 0.45 0.448 0.867 0.716 1.44 0.938 0.659 0.254 1.361 0.396 2.4 0.443 1.472 0.071 1.987 0.077 5.373 0.077 3.299 0 3.837-0.008 5.373-0.077 1.043-0.049 1.745-0.189 2.395-0.441 0.578-0.224 0.997-0.493 1.44-0.935 0.45-0.45 0.717-0.867 0.938-1.44 0.253-0.657 0.396-1.361 0.443-2.4 0.069-1.472 0.077-1.987 0.077-5.373 0-3.299-0.008-3.837-0.077-5.373-0.049-1.043-0.189-1.747-0.443-2.397-0.212-0.565-0.531-1.046-0.936-1.439l-0.001-0.001c-0.394-0.407-0.875-0.727-1.413-0.929l-0.026-0.009c-0.653-0.253-1.354-0.394-2.397-0.441-1.472-0.071-1.987-0.077-5.373-0.077zM16 2.666c3.621 0 4.076 0.013 5.496 0.081s2.387 0.29 3.237 0.62c0.925 0.352 1.714 0.875 2.362 1.537l0.001 0.001c0.679 0.665 1.203 1.472 1.538 2.363 0.328 0.849 0.552 1.817 0.62 3.237 0.062 1.421 0.081 1.873 0.081 5.496 0 3.621-0.013 4.076-0.081 5.496s-0.29 2.387-0.62 3.237c-0.353 0.925-0.876 1.713-1.537 2.362l-0.001 0.001c-0.65 0.661-1.438 1.184-2.318 1.523l-0.045 0.015c-0.849 0.33-1.817 0.554-3.237 0.62-1.421 0.062-1.873 0.081-5.496 0.081s-4.076-0.013-5.496-0.081-2.387-0.29-3.239-0.62c-0.924-0.353-1.712-0.876-2.36-1.537l-0.001-0.001c-0.661-0.65-1.184-1.438-1.523-2.318l-0.015-0.045c-0.33-0.849-0.554-1.817-0.62-3.237-0.062-1.421-0.081-1.873-0.081-5.496s0.013-4.076 0.081-5.496c0.067-1.421 0.29-2.387 0.62-3.237 0.333-0.893 0.859-1.698 1.538-2.363 0.649-0.661 1.437-1.184 2.317-1.523l0.045-0.015c0.852-0.33 1.817-0.554 3.239-0.62 1.421-0.062 1.873-0.081 5.496-0.081z"></path>
</symbol>
<symbol id="icon-telegram-footer" viewBox="0 0 32 32">
<path d="M16 26.666c0.040 0.001 0.087 0.001 0.134 0.001 5.892 0 10.668-4.776 10.668-10.668s-4.776-10.668-10.668-10.668c-0.047 0-0.094 0-0.141 0.001l0.007-0c-5.834 0.076-10.534 4.822-10.534 10.667s4.7 10.591 10.527 10.667l0.007 0zM16 29.334c-0.045 0.001-0.097 0.001-0.15 0.001-7.364 0-13.334-5.97-13.334-13.334s5.97-13.334 13.334-13.334c0.053 0 0.105 0 0.158 0.001l-0.008-0c7.299 0.085 13.184 6.022 13.184 13.333s-5.885 13.248-13.176 13.333l-0.008 0zM11.853 17.561l-3.331-1.039c-0.719-0.221-0.724-0.717 0.162-1.073l12.977-5.014c0.755-0.307 1.181 0.083 0.936 1.054l-2.21 10.425c-0.153 0.744-0.601 0.921-1.221 0.578l-3.402-2.516-1.583 1.531c-0.163 0.157-0.296 0.291-0.547 0.325-0.249 0.034-0.455-0.040-0.605-0.455l-1.16-3.827-0.017 0.008z"></path>
</symbol>
<symbol id="icon-felters" viewBox="0 0 27 32">
<path d="M16.615 19.077v9.231l-6.154 3.077v-12.308l-9.231-13.846v-3.077h24.615v3.077l-9.231 13.846zM4.928 5.231l8.61 12.913 8.61-12.913h-17.218z"></path>
</symbol>
<symbol id="icon-arrow" viewBox="0 0 22 32">
<path d="M12.448 16l-12.448-12.448 3.555-3.552 16 16-16 16-3.552-3.552 12.438-12.448z"></path>
</symbol>
<symbol id="icon-like" viewBox="0 0 32 32">
<path d="M15.858 4.937c1.589-1.441 3.708-2.322 6.033-2.322 4.969 0 8.997 4.028 8.997 8.997 0 2.319-0.877 4.433-2.318 6.028l0.007-0.008-12.72 12.738-12.718-12.738c-1.392-1.577-2.242-3.662-2.242-5.946 0-4.972 4.031-9.003 9.003-9.003 2.29 0 4.38 0.855 5.968 2.262l-0.009-0.008zM26.098 7.399c-1.085-1.084-2.584-1.754-4.239-1.754-1.538 0-2.941 0.579-4.002 1.531l0.006-0.005-2.002 1.794-2.005-1.794c-1.059-0.959-2.47-1.545-4.019-1.545-3.312 0-5.998 2.685-5.998 5.998 0 1.518 0.564 2.905 1.494 3.961l-0.006-0.007 10.528 10.546 10.53-10.544c0.914-1.047 1.471-2.427 1.471-3.936 0-1.659-0.673-3.161-1.762-4.247l-0-0z"></path>
</symbol>
</defs>
</svg>
