<svg aria-hidden="true" style="position: absolute; width: 0; height: 0; overflow: hidden;" version="1.1" xmlns="http://www.w3.org/2000/svg" xmlns:xlink="http://www.w3.org/1999/xlink">
<defs>
<symbol id="icon-like-1" viewBox="0 0 34 32">
<path fill="#fff" style="fill: var(--color1, #fff)" d="M31.385 17.582l-12.443 13.625c-0.229 0.251-0.498 0.45-0.795 0.587-0.276 0.129-0.6 0.205-0.941 0.205s-0.664-0.075-0.954-0.211l0.014 0.006c-0.312-0.146-0.576-0.344-0.793-0.585l-0.002-0.002-12.766-13.979c-0.869-0.952-1.565-2.081-2.025-3.324l-0.023-0.071c-0.417-1.111-0.658-2.395-0.658-3.736 0-1.528 0.314-2.983 0.88-4.303l-0.027 0.071c0.526-1.243 1.275-2.357 2.208-3.273 3.579-3.55 9.417-3.211 12.994 0.725l1.154 1.243 1.474-1.598c0.851-0.932 1.881-1.685 3.037-2.207l0.058-0.024c1.018-0.461 2.207-0.729 3.459-0.729 0.066 0 0.133 0.001 0.199 0.002l-0.010-0c1.33 0.039 2.573 0.376 3.675 0.946l-0.048-0.022c1.138 0.576 2.158 1.401 2.994 2.423 3.225 3.92 2.935 10.313-0.661 14.233z"></path>
</symbol>
</defs>
</svg>
