<svg xmlns="http://www.w3.org/2000/svg" width="100" height="100" fill="none"><path fill="#99C179" d="M40.493 0v.013c17.79 14.345-10.823 22.195-7.94 36.699-4.384-2.883-5.987-9.773-1.873-15.702-10.898 4.594-15.663 10.889-15.393 20.433.201 7.148 3.122 12.898 7.646 17.214-2.088-5.749-2.563-11.674-1.107-16.716 7.625 10.332 29.395-4.188 31.38-16.605-.009 13.336 13.653 24.787 24.047 10.97 1.905 7.743 1.416 15.772-.687 22.135 4.14-4.26 6.764-9.913 6.907-16.998.198-9.87-4.49-19.017-13.38-23.614 3.871 8.143-.107 13.739-9.314 17.54C69.372 21.235 64.276 3.02 40.493 0Zm9.16 47.4c-1.273-.019-2.68.48-4.406 1.753-8.158 6.017-18.889 16.13-21.154 22.77-3.982-.915-9.206.487-9.206 4.3 0 .421.068.815.186 1.178-2.114-.083-4.313.817-4.313 2.73 0 3.56 7.624 3.704 8.12.346 2.21.624 4.895.49 6.873-.425-.16.386-.246.81-.246 1.277 0 4.765 9.155 5.434 11.573 1.904 2.034 1.455 6.356 1.03 7.007-1.309 3.407.294 6.908.368 10.333.203 1.822 1.208 5.289 1.005 6.533-.628 2.728-.406 5.334-.989 7.714-1.76.405 3.395 8.126 3.333 8.126-.282 0-.157-.01-.308-.04-.452 2.398.635 5.674-.21 5.674-2.566 0-2.309-3.33-3.163-5.733-2.52C76.77 67.925 64.19 57.005 54.28 49.5c-1.576-1.193-2.99-2.078-4.627-2.1ZM90.12 70.941c-2.037-.01-4.073.896-4.073 2.736 0 3.679 8.147 3.712 8.147 0 0-1.805-2.037-2.727-4.074-2.736ZM4.073 73.036C2.036 73.027 0 73.932 0 75.772c0 3.68 8.147 3.713 8.147 0 0-1.805-2.037-2.727-4.074-2.736Zm91.854 4.274c-2.037-.009-4.074.896-4.074 2.736 0 3.679 8.147 3.712 8.147 0 0-1.805-2.037-2.727-4.073-2.736Zm-10.6 5.328c-2.293-.01-4.587 1.005-4.587 3.076 0 4.142 9.173 4.179 9.173 0 0-2.032-2.293-3.067-4.587-3.076Zm-17.06.622c-2.037-.005-4.074.918-4.074 2.774 0 2.521 3.976 3.315 6.373 2.31 2.006 1.864 7.407 1.354 7.407-1.642 0-2.57-3.97-3.353-6.367-2.33-.774-.734-2.055-1.11-3.34-1.112Zm-18.607.34c-2.037-.009-4.074.89-4.074 2.729 0 3.679 8.147 3.712 8.147 0 0-1.805-2.037-2.72-4.073-2.73Zm-27.547 3.083c-2.4-.006-4.8 1.072-4.8 3.259 0 2.602 3.59 3.64 6.38 3.063 1.853 2.06 7.573 1.61 7.573-1.473 0-2.004-2.419-2.924-4.62-2.749-.688-1.395-2.61-2.097-4.533-2.1Zm37.02 2.375c-1.793-.008-3.584.602-4.32 1.84-3.156-.86-7.52.217-7.52 3.305 0 4.46 9.105 4.843 10.52 1.047 2.68.486 5.994-.522 5.994-3.057 0-2.069-2.338-3.125-4.674-3.135ZM38.44 93.803c-2.293-.01-4.58 1.006-4.58 3.076 0 4.142 9.167 4.18 9.167 0 0-2.031-2.294-3.066-4.587-3.076Zm48.667.295c-2.037-.009-4.074.896-4.074 2.736 0 3.679 8.148 3.712 8.148 0 0-1.805-2.038-2.727-4.074-2.736Z"/></svg>