<svg aria-hidden="true" style="position: absolute; width: 0; height: 0; overflow: hidden;" version="1.1" xmlns="http://www.w3.org/2000/svg" xmlns:xlink="http://www.w3.org/1999/xlink">
<defs>
<symbol id="icon-logo" viewBox="0 0 32 32">
<path fill="#99c179" style="fill: var(--color1, #99c179)" d="M12.958 0v0.004c5.693 4.59-3.463 7.102-2.541 11.744-1.403-0.923-1.916-3.127-0.599-5.025-3.487 1.47-5.012 3.484-4.926 6.539 0.064 2.287 0.999 4.127 2.447 5.508-0.668-1.84-0.82-3.736-0.354-5.349 2.44 3.306 9.406-1.34 10.042-5.314-0.003 4.268 4.369 7.932 7.695 3.51 0.61 2.478 0.453 5.047-0.22 7.083 1.325-1.363 2.164-3.172 2.21-5.439 0.063-3.158-1.437-6.085-4.282-7.556 1.239 2.606-0.034 4.396-2.98 5.613 2.75-4.523 1.119-10.352-6.492-11.318zM15.889 15.168c-0.407-0.006-0.858 0.154-1.41 0.561-2.611 1.925-6.044 5.162-6.769 7.286-1.274-0.293-2.946 0.156-2.946 1.376 0 0.135 0.022 0.261 0.060 0.377-0.676-0.027-1.38 0.261-1.38 0.874 0 1.139 2.44 1.185 2.598 0.111 0.707 0.2 1.566 0.157 2.199-0.136-0.051 0.124-0.079 0.259-0.079 0.409 0 1.525 2.93 1.739 3.703 0.609 0.651 0.466 2.034 0.33 2.242-0.419 1.090 0.094 2.211 0.118 3.307 0.065 0.583 0.387 1.692 0.322 2.091-0.201 0.873-0.13 1.707-0.316 2.468-0.563 0.13 1.086 2.6 1.067 2.6-0.090 0-0.050-0.003-0.099-0.013-0.145 0.767 0.203 1.816-0.067 1.816-0.821 0-0.739-1.066-1.012-1.835-0.806 0.024-1.918-4.001-5.412-7.172-7.814-0.504-0.382-0.957-0.665-1.481-0.672zM28.838 22.701c-0.652-0.003-1.303 0.287-1.303 0.876 0 1.177 2.607 1.188 2.607 0 0-0.578-0.652-0.873-1.304-0.876zM1.303 23.372c-0.652-0.003-1.303 0.287-1.303 0.876 0 1.178 2.607 1.188 2.607 0 0-0.578-0.652-0.873-1.304-0.876zM30.697 24.739c-0.652-0.003-1.304 0.287-1.304 0.876 0 1.177 2.607 1.188 2.607 0 0-0.578-0.652-0.873-1.303-0.876zM27.305 26.444c-0.734-0.003-1.468 0.322-1.468 0.984 0 1.325 2.935 1.337 2.935 0 0-0.65-0.734-0.981-1.468-0.984zM21.845 26.643c-0.652-0.002-1.304 0.294-1.304 0.888 0 0.807 1.272 1.061 2.039 0.739 0.642 0.596 2.37 0.433 2.37-0.525 0-0.822-1.27-1.073-2.037-0.746-0.248-0.235-0.658-0.355-1.069-0.356zM15.891 26.752c-0.652-0.003-1.304 0.285-1.304 0.873 0 1.177 2.607 1.188 2.607 0 0-0.578-0.652-0.87-1.303-0.874zM7.076 27.739c-0.768-0.002-1.536 0.343-1.536 1.043 0 0.833 1.149 1.165 2.042 0.98 0.593 0.659 2.423 0.515 2.423-0.471 0-0.641-0.774-0.936-1.478-0.88-0.22-0.446-0.835-0.671-1.451-0.672zM18.923 28.499c-0.574-0.003-1.147 0.193-1.382 0.589-1.010-0.275-2.406 0.069-2.406 1.058 0 1.427 2.914 1.55 3.366 0.335 0.858 0.156 1.918-0.167 1.918-0.978 0-0.662-0.748-1-1.496-1.003zM12.301 30.017c-0.734-0.003-1.466 0.322-1.466 0.984 0 1.325 2.933 1.338 2.933 0 0-0.65-0.734-0.981-1.468-0.984zM27.874 30.111c-0.652-0.003-1.304 0.287-1.304 0.876 0 1.177 2.607 1.188 2.607 0 0-0.578-0.652-0.873-1.304-0.876z"></path>
</symbol>
</defs>
</svg>
